<mxfile host="app.diagrams.net" agent="Mozilla/5.0 (Macintosh; Intel Mac OS X 10_15_7) AppleWebKit/537.36 (KHTML, like Gecko) Chrome/138.0.0.0 Safari/537.36" version="28.0.9">
  <diagram name="Page-1" id="E6T4vvLIqMzej7YUCJMo">
    <mxGraphModel dx="4050" dy="967" grid="1" gridSize="10" guides="1" tooltips="1" connect="1" arrows="1" fold="1" page="1" pageScale="1" pageWidth="827" pageHeight="1169" math="0" shadow="0">
      <root>
        <mxCell id="0" />
        <mxCell id="1" parent="0" />
        <mxCell id="dYMYWbsDxyKQ4BSx5NU6-26" value="" style="edgeStyle=orthogonalEdgeStyle;rounded=0;orthogonalLoop=1;jettySize=auto;html=1;" parent="1" source="hgYDQoQGeF-wv4_Qf0x2-1" target="dYMYWbsDxyKQ4BSx5NU6-3" edge="1">
          <mxGeometry relative="1" as="geometry" />
        </mxCell>
        <mxCell id="hgYDQoQGeF-wv4_Qf0x2-1" value="start" style="ellipse;whiteSpace=wrap;html=1;" parent="1" vertex="1">
          <mxGeometry x="354" y="204" width="120" height="80" as="geometry" />
        </mxCell>
        <mxCell id="hgYDQoQGeF-wv4_Qf0x2-2" value="finish" style="ellipse;whiteSpace=wrap;html=1;" parent="1" vertex="1">
          <mxGeometry x="354" y="1080" width="120" height="80" as="geometry" />
        </mxCell>
        <mxCell id="dYMYWbsDxyKQ4BSx5NU6-18" value="" style="edgeStyle=orthogonalEdgeStyle;rounded=0;orthogonalLoop=1;jettySize=auto;html=1;" parent="1" source="dYMYWbsDxyKQ4BSx5NU6-1" target="dYMYWbsDxyKQ4BSx5NU6-7" edge="1">
          <mxGeometry relative="1" as="geometry" />
        </mxCell>
        <mxCell id="dYMYWbsDxyKQ4BSx5NU6-19" value="" style="edgeStyle=orthogonalEdgeStyle;rounded=0;orthogonalLoop=1;jettySize=auto;html=1;" parent="1" source="dYMYWbsDxyKQ4BSx5NU6-1" target="dYMYWbsDxyKQ4BSx5NU6-2" edge="1">
          <mxGeometry relative="1" as="geometry" />
        </mxCell>
        <mxCell id="dYMYWbsDxyKQ4BSx5NU6-21" value="" style="edgeStyle=orthogonalEdgeStyle;rounded=0;orthogonalLoop=1;jettySize=auto;html=1;" parent="1" source="dYMYWbsDxyKQ4BSx5NU6-1" target="dYMYWbsDxyKQ4BSx5NU6-5" edge="1">
          <mxGeometry relative="1" as="geometry" />
        </mxCell>
        <mxCell id="dYMYWbsDxyKQ4BSx5NU6-1" value="is food in the bowl" style="rhombus;whiteSpace=wrap;html=1;" parent="1" vertex="1">
          <mxGeometry x="346.5" y="514" width="135" height="130" as="geometry" />
        </mxCell>
        <mxCell id="dYMYWbsDxyKQ4BSx5NU6-20" value="" style="edgeStyle=orthogonalEdgeStyle;rounded=0;orthogonalLoop=1;jettySize=auto;html=1;" parent="1" source="dYMYWbsDxyKQ4BSx5NU6-2" target="dYMYWbsDxyKQ4BSx5NU6-12" edge="1">
          <mxGeometry relative="1" as="geometry" />
        </mxCell>
        <mxCell id="dYMYWbsDxyKQ4BSx5NU6-2" value="dispense food" style="rounded=0;whiteSpace=wrap;html=1;" parent="1" vertex="1">
          <mxGeometry x="541" y="549" width="132.5" height="60" as="geometry" />
        </mxCell>
        <mxCell id="dYMYWbsDxyKQ4BSx5NU6-15" value="" style="edgeStyle=orthogonalEdgeStyle;rounded=0;orthogonalLoop=1;jettySize=auto;html=1;" parent="1" source="dYMYWbsDxyKQ4BSx5NU6-3" target="dYMYWbsDxyKQ4BSx5NU6-1" edge="1">
          <mxGeometry relative="1" as="geometry" />
        </mxCell>
        <mxCell id="dYMYWbsDxyKQ4BSx5NU6-3" value="is it feeding time 8am/6pm" style="rhombus;whiteSpace=wrap;html=1;" parent="1" vertex="1">
          <mxGeometry x="346.5" y="334" width="135" height="130" as="geometry" />
        </mxCell>
        <mxCell id="dYMYWbsDxyKQ4BSx5NU6-5" value="Send Alert" style="rounded=0;whiteSpace=wrap;html=1;" parent="1" vertex="1">
          <mxGeometry x="151" y="549" width="120" height="60" as="geometry" />
        </mxCell>
        <mxCell id="aVFgRUdNQQyxXAQFHpOC-2" value="" style="edgeStyle=orthogonalEdgeStyle;rounded=0;orthogonalLoop=1;jettySize=auto;html=1;" edge="1" parent="1" source="dYMYWbsDxyKQ4BSx5NU6-7" target="aVFgRUdNQQyxXAQFHpOC-1">
          <mxGeometry relative="1" as="geometry" />
        </mxCell>
        <mxCell id="aVFgRUdNQQyxXAQFHpOC-6" value="" style="edgeStyle=orthogonalEdgeStyle;rounded=0;orthogonalLoop=1;jettySize=auto;html=1;" edge="1" parent="1" source="dYMYWbsDxyKQ4BSx5NU6-7" target="aVFgRUdNQQyxXAQFHpOC-4">
          <mxGeometry relative="1" as="geometry" />
        </mxCell>
        <mxCell id="dYMYWbsDxyKQ4BSx5NU6-7" value="has pet eaten" style="rhombus;whiteSpace=wrap;html=1;" parent="1" vertex="1">
          <mxGeometry x="346.5" y="684" width="135" height="130" as="geometry" />
        </mxCell>
        <mxCell id="dYMYWbsDxyKQ4BSx5NU6-22" value="" style="edgeStyle=orthogonalEdgeStyle;rounded=0;orthogonalLoop=1;jettySize=auto;html=1;" parent="1" source="dYMYWbsDxyKQ4BSx5NU6-12" target="dYMYWbsDxyKQ4BSx5NU6-7" edge="1">
          <mxGeometry relative="1" as="geometry" />
        </mxCell>
        <mxCell id="dYMYWbsDxyKQ4BSx5NU6-12" value="wait 10 minutes" style="rhombus;whiteSpace=wrap;html=1;" parent="1" vertex="1">
          <mxGeometry x="541" y="684" width="135" height="130" as="geometry" />
        </mxCell>
        <mxCell id="aVFgRUdNQQyxXAQFHpOC-3" value="" style="edgeStyle=orthogonalEdgeStyle;rounded=0;orthogonalLoop=1;jettySize=auto;html=1;" edge="1" parent="1" source="aVFgRUdNQQyxXAQFHpOC-1" target="dYMYWbsDxyKQ4BSx5NU6-5">
          <mxGeometry relative="1" as="geometry" />
        </mxCell>
        <mxCell id="aVFgRUdNQQyxXAQFHpOC-1" value="weigh bowl" style="rounded=0;whiteSpace=wrap;html=1;" vertex="1" parent="1">
          <mxGeometry x="150" y="719" width="120" height="60" as="geometry" />
        </mxCell>
        <mxCell id="aVFgRUdNQQyxXAQFHpOC-10" value="" style="edgeStyle=orthogonalEdgeStyle;rounded=0;orthogonalLoop=1;jettySize=auto;html=1;" edge="1" parent="1" source="aVFgRUdNQQyxXAQFHpOC-4" target="aVFgRUdNQQyxXAQFHpOC-7">
          <mxGeometry relative="1" as="geometry" />
        </mxCell>
        <mxCell id="aVFgRUdNQQyxXAQFHpOC-4" value="weigh bowl" style="whiteSpace=wrap;html=1;" vertex="1" parent="1">
          <mxGeometry x="354" y="870" width="120" height="60" as="geometry" />
        </mxCell>
        <mxCell id="aVFgRUdNQQyxXAQFHpOC-11" value="" style="edgeStyle=orthogonalEdgeStyle;rounded=0;orthogonalLoop=1;jettySize=auto;html=1;" edge="1" parent="1" source="aVFgRUdNQQyxXAQFHpOC-7" target="hgYDQoQGeF-wv4_Qf0x2-2">
          <mxGeometry relative="1" as="geometry" />
        </mxCell>
        <mxCell id="aVFgRUdNQQyxXAQFHpOC-7" value="store information" style="rounded=0;whiteSpace=wrap;html=1;" vertex="1" parent="1">
          <mxGeometry x="354" y="970" width="120" height="60" as="geometry" />
        </mxCell>
        <mxCell id="aVFgRUdNQQyxXAQFHpOC-8" value="no" style="text;html=1;align=center;verticalAlign=middle;resizable=0;points=[];autosize=1;strokeColor=none;fillColor=none;" vertex="1" parent="1">
          <mxGeometry x="290" y="718" width="40" height="30" as="geometry" />
        </mxCell>
        <mxCell id="aVFgRUdNQQyxXAQFHpOC-9" value="yes" style="text;html=1;align=center;verticalAlign=middle;resizable=0;points=[];autosize=1;strokeColor=none;fillColor=none;" vertex="1" parent="1">
          <mxGeometry x="370" y="828" width="40" height="30" as="geometry" />
        </mxCell>
        <mxCell id="aVFgRUdNQQyxXAQFHpOC-41" value="" style="edgeStyle=orthogonalEdgeStyle;rounded=0;orthogonalLoop=1;jettySize=auto;html=1;" edge="1" parent="1" source="aVFgRUdNQQyxXAQFHpOC-12" target="aVFgRUdNQQyxXAQFHpOC-40">
          <mxGeometry relative="1" as="geometry" />
        </mxCell>
        <mxCell id="aVFgRUdNQQyxXAQFHpOC-12" value="has pet eaten" style="rhombus;whiteSpace=wrap;html=1;" vertex="1" parent="1">
          <mxGeometry x="-141.25" y="1044" width="135" height="130" as="geometry" />
        </mxCell>
        <mxCell id="aVFgRUdNQQyxXAQFHpOC-16" value="" style="edgeStyle=orthogonalEdgeStyle;rounded=0;orthogonalLoop=1;jettySize=auto;html=1;" edge="1" parent="1" source="aVFgRUdNQQyxXAQFHpOC-13" target="aVFgRUdNQQyxXAQFHpOC-14">
          <mxGeometry relative="1" as="geometry" />
        </mxCell>
        <mxCell id="aVFgRUdNQQyxXAQFHpOC-13" value="is it feeding time 8am/6pm" style="rhombus;whiteSpace=wrap;html=1;" vertex="1" parent="1">
          <mxGeometry x="-140" y="284" width="135" height="130" as="geometry" />
        </mxCell>
        <mxCell id="aVFgRUdNQQyxXAQFHpOC-18" value="" style="edgeStyle=orthogonalEdgeStyle;rounded=0;orthogonalLoop=1;jettySize=auto;html=1;" edge="1" parent="1" source="aVFgRUdNQQyxXAQFHpOC-14" target="aVFgRUdNQQyxXAQFHpOC-17">
          <mxGeometry relative="1" as="geometry" />
        </mxCell>
        <mxCell id="aVFgRUdNQQyxXAQFHpOC-14" value="weigh bowl" style="rounded=0;whiteSpace=wrap;html=1;" vertex="1" parent="1">
          <mxGeometry x="-132.5" y="444" width="120" height="60" as="geometry" />
        </mxCell>
        <mxCell id="aVFgRUdNQQyxXAQFHpOC-25" value="" style="edgeStyle=orthogonalEdgeStyle;rounded=0;orthogonalLoop=1;jettySize=auto;html=1;" edge="1" parent="1" source="aVFgRUdNQQyxXAQFHpOC-17" target="aVFgRUdNQQyxXAQFHpOC-19">
          <mxGeometry relative="1" as="geometry" />
        </mxCell>
        <mxCell id="aVFgRUdNQQyxXAQFHpOC-28" value="" style="edgeStyle=orthogonalEdgeStyle;rounded=0;orthogonalLoop=1;jettySize=auto;html=1;" edge="1" parent="1" source="aVFgRUdNQQyxXAQFHpOC-17" target="aVFgRUdNQQyxXAQFHpOC-27">
          <mxGeometry relative="1" as="geometry" />
        </mxCell>
        <mxCell id="aVFgRUdNQQyxXAQFHpOC-17" value="is food in the bowl" style="rhombus;whiteSpace=wrap;html=1;" vertex="1" parent="1">
          <mxGeometry x="-140" y="542" width="135" height="130" as="geometry" />
        </mxCell>
        <mxCell id="aVFgRUdNQQyxXAQFHpOC-26" value="" style="edgeStyle=orthogonalEdgeStyle;rounded=0;orthogonalLoop=1;jettySize=auto;html=1;" edge="1" parent="1" source="aVFgRUdNQQyxXAQFHpOC-19" target="aVFgRUdNQQyxXAQFHpOC-21">
          <mxGeometry relative="1" as="geometry" />
        </mxCell>
        <mxCell id="aVFgRUdNQQyxXAQFHpOC-19" value="dispense food" style="rounded=0;whiteSpace=wrap;html=1;" vertex="1" parent="1">
          <mxGeometry x="-140" y="704" width="132.5" height="60" as="geometry" />
        </mxCell>
        <mxCell id="aVFgRUdNQQyxXAQFHpOC-31" value="" style="edgeStyle=orthogonalEdgeStyle;rounded=0;orthogonalLoop=1;jettySize=auto;html=1;" edge="1" parent="1" source="aVFgRUdNQQyxXAQFHpOC-21" target="aVFgRUdNQQyxXAQFHpOC-30">
          <mxGeometry relative="1" as="geometry" />
        </mxCell>
        <mxCell id="aVFgRUdNQQyxXAQFHpOC-21" value="wait 10 minutes" style="rhombus;whiteSpace=wrap;html=1;" vertex="1" parent="1">
          <mxGeometry x="-141.25" y="803" width="135" height="130" as="geometry" />
        </mxCell>
        <mxCell id="aVFgRUdNQQyxXAQFHpOC-27" value="Send Alert" style="rounded=0;whiteSpace=wrap;html=1;" vertex="1" parent="1">
          <mxGeometry x="-300" y="577" width="120" height="60" as="geometry" />
        </mxCell>
        <mxCell id="aVFgRUdNQQyxXAQFHpOC-32" value="" style="edgeStyle=orthogonalEdgeStyle;rounded=0;orthogonalLoop=1;jettySize=auto;html=1;" edge="1" parent="1" source="aVFgRUdNQQyxXAQFHpOC-30" target="aVFgRUdNQQyxXAQFHpOC-12">
          <mxGeometry relative="1" as="geometry" />
        </mxCell>
        <mxCell id="aVFgRUdNQQyxXAQFHpOC-30" value="weigh bowl" style="whiteSpace=wrap;html=1;" vertex="1" parent="1">
          <mxGeometry x="-133.75" y="964" width="120" height="60" as="geometry" />
        </mxCell>
        <mxCell id="aVFgRUdNQQyxXAQFHpOC-35" value="finish" style="ellipse;whiteSpace=wrap;html=1;" vertex="1" parent="1">
          <mxGeometry x="-133.75" y="1290" width="120" height="80" as="geometry" />
        </mxCell>
        <mxCell id="aVFgRUdNQQyxXAQFHpOC-39" value="" style="edgeStyle=orthogonalEdgeStyle;rounded=0;orthogonalLoop=1;jettySize=auto;html=1;" edge="1" parent="1" source="aVFgRUdNQQyxXAQFHpOC-38" target="aVFgRUdNQQyxXAQFHpOC-13">
          <mxGeometry relative="1" as="geometry" />
        </mxCell>
        <mxCell id="aVFgRUdNQQyxXAQFHpOC-38" value="start" style="ellipse;whiteSpace=wrap;html=1;" vertex="1" parent="1">
          <mxGeometry x="-133.75" y="160" width="120" height="80" as="geometry" />
        </mxCell>
        <mxCell id="aVFgRUdNQQyxXAQFHpOC-42" value="" style="edgeStyle=orthogonalEdgeStyle;rounded=0;orthogonalLoop=1;jettySize=auto;html=1;" edge="1" parent="1" source="aVFgRUdNQQyxXAQFHpOC-40" target="aVFgRUdNQQyxXAQFHpOC-35">
          <mxGeometry relative="1" as="geometry" />
        </mxCell>
        <mxCell id="aVFgRUdNQQyxXAQFHpOC-40" value="" style="ellipse;whiteSpace=wrap;html=1;aspect=fixed;" vertex="1" parent="1">
          <mxGeometry x="-93.75" y="1210" width="40" height="40" as="geometry" />
        </mxCell>
        <mxCell id="aVFgRUdNQQyxXAQFHpOC-48" value="" style="edgeStyle=orthogonalEdgeStyle;rounded=0;orthogonalLoop=1;jettySize=auto;html=1;" edge="1" parent="1" source="aVFgRUdNQQyxXAQFHpOC-44" target="aVFgRUdNQQyxXAQFHpOC-45">
          <mxGeometry relative="1" as="geometry" />
        </mxCell>
        <mxCell id="aVFgRUdNQQyxXAQFHpOC-44" value="start" style="ellipse;whiteSpace=wrap;html=1;" vertex="1" parent="1">
          <mxGeometry x="-1970" y="349" width="120" height="80" as="geometry" />
        </mxCell>
        <mxCell id="aVFgRUdNQQyxXAQFHpOC-49" value="" style="edgeStyle=orthogonalEdgeStyle;rounded=0;orthogonalLoop=1;jettySize=auto;html=1;" edge="1" parent="1" source="aVFgRUdNQQyxXAQFHpOC-45" target="aVFgRUdNQQyxXAQFHpOC-46">
          <mxGeometry relative="1" as="geometry" />
        </mxCell>
        <mxCell id="aVFgRUdNQQyxXAQFHpOC-45" value="is it feeding time 8am/6pm" style="rhombus;whiteSpace=wrap;html=1;" vertex="1" parent="1">
          <mxGeometry x="-1810" y="324" width="135" height="130" as="geometry" />
        </mxCell>
        <mxCell id="aVFgRUdNQQyxXAQFHpOC-50" value="" style="edgeStyle=orthogonalEdgeStyle;rounded=0;orthogonalLoop=1;jettySize=auto;html=1;" edge="1" parent="1" source="aVFgRUdNQQyxXAQFHpOC-46" target="aVFgRUdNQQyxXAQFHpOC-47">
          <mxGeometry relative="1" as="geometry" />
        </mxCell>
        <mxCell id="aVFgRUdNQQyxXAQFHpOC-46" value="weigh bowl" style="rounded=0;whiteSpace=wrap;html=1;" vertex="1" parent="1">
          <mxGeometry x="-1630" y="359" width="120" height="60" as="geometry" />
        </mxCell>
        <mxCell id="aVFgRUdNQQyxXAQFHpOC-72" value="" style="edgeStyle=orthogonalEdgeStyle;rounded=0;orthogonalLoop=1;jettySize=auto;html=1;" edge="1" parent="1" source="aVFgRUdNQQyxXAQFHpOC-47" target="aVFgRUdNQQyxXAQFHpOC-51">
          <mxGeometry relative="1" as="geometry" />
        </mxCell>
        <mxCell id="aVFgRUdNQQyxXAQFHpOC-75" value="" style="edgeStyle=orthogonalEdgeStyle;rounded=0;orthogonalLoop=1;jettySize=auto;html=1;" edge="1" parent="1" source="aVFgRUdNQQyxXAQFHpOC-47" target="aVFgRUdNQQyxXAQFHpOC-59">
          <mxGeometry relative="1" as="geometry" />
        </mxCell>
        <mxCell id="aVFgRUdNQQyxXAQFHpOC-47" value="is food in the bowl" style="rhombus;whiteSpace=wrap;html=1;" vertex="1" parent="1">
          <mxGeometry x="-1460" y="324" width="135" height="130" as="geometry" />
        </mxCell>
        <mxCell id="aVFgRUdNQQyxXAQFHpOC-73" value="" style="edgeStyle=orthogonalEdgeStyle;rounded=0;orthogonalLoop=1;jettySize=auto;html=1;" edge="1" parent="1" source="aVFgRUdNQQyxXAQFHpOC-51" target="aVFgRUdNQQyxXAQFHpOC-53">
          <mxGeometry relative="1" as="geometry" />
        </mxCell>
        <mxCell id="aVFgRUdNQQyxXAQFHpOC-51" value="dispense food" style="rounded=0;whiteSpace=wrap;html=1;" vertex="1" parent="1">
          <mxGeometry x="-1460" y="214" width="132.5" height="60" as="geometry" />
        </mxCell>
        <mxCell id="aVFgRUdNQQyxXAQFHpOC-77" value="" style="edgeStyle=orthogonalEdgeStyle;rounded=0;orthogonalLoop=1;jettySize=auto;html=1;" edge="1" parent="1" source="aVFgRUdNQQyxXAQFHpOC-53" target="aVFgRUdNQQyxXAQFHpOC-55">
          <mxGeometry relative="1" as="geometry" />
        </mxCell>
        <mxCell id="aVFgRUdNQQyxXAQFHpOC-53" value="wait 10 minutes" style="rhombus;whiteSpace=wrap;html=1;" vertex="1" parent="1">
          <mxGeometry x="-1261.25" y="179" width="135" height="130" as="geometry" />
        </mxCell>
        <mxCell id="aVFgRUdNQQyxXAQFHpOC-79" value="" style="edgeStyle=orthogonalEdgeStyle;rounded=0;orthogonalLoop=1;jettySize=auto;html=1;" edge="1" parent="1" source="aVFgRUdNQQyxXAQFHpOC-55" target="aVFgRUdNQQyxXAQFHpOC-57">
          <mxGeometry relative="1" as="geometry" />
        </mxCell>
        <mxCell id="aVFgRUdNQQyxXAQFHpOC-55" value="weigh bowl" style="whiteSpace=wrap;html=1;" vertex="1" parent="1">
          <mxGeometry x="-1071.25" y="214" width="120" height="60" as="geometry" />
        </mxCell>
        <mxCell id="aVFgRUdNQQyxXAQFHpOC-74" value="" style="edgeStyle=orthogonalEdgeStyle;rounded=0;orthogonalLoop=1;jettySize=auto;html=1;" edge="1" parent="1" source="aVFgRUdNQQyxXAQFHpOC-57" target="aVFgRUdNQQyxXAQFHpOC-65">
          <mxGeometry relative="1" as="geometry" />
        </mxCell>
        <mxCell id="aVFgRUdNQQyxXAQFHpOC-76" value="" style="edgeStyle=orthogonalEdgeStyle;rounded=0;orthogonalLoop=1;jettySize=auto;html=1;" edge="1" parent="1" source="aVFgRUdNQQyxXAQFHpOC-57" target="aVFgRUdNQQyxXAQFHpOC-68">
          <mxGeometry relative="1" as="geometry" />
        </mxCell>
        <mxCell id="aVFgRUdNQQyxXAQFHpOC-57" value="has pet eaten" style="rhombus;whiteSpace=wrap;html=1;" vertex="1" parent="1">
          <mxGeometry x="-881.25" y="179" width="135" height="130" as="geometry" />
        </mxCell>
        <mxCell id="aVFgRUdNQQyxXAQFHpOC-59" value="Send Alert" style="rounded=0;whiteSpace=wrap;html=1;" vertex="1" parent="1">
          <mxGeometry x="-1452.5" y="504" width="120" height="60" as="geometry" />
        </mxCell>
        <mxCell id="aVFgRUdNQQyxXAQFHpOC-65" value="Send Alert" style="rounded=0;whiteSpace=wrap;html=1;" vertex="1" parent="1">
          <mxGeometry x="-873.75" y="60" width="120" height="60" as="geometry" />
        </mxCell>
        <mxCell id="aVFgRUdNQQyxXAQFHpOC-68" value="finish" style="ellipse;whiteSpace=wrap;html=1;" vertex="1" parent="1">
          <mxGeometry x="-873.75" y="384" width="120" height="80" as="geometry" />
        </mxCell>
        <mxCell id="aVFgRUdNQQyxXAQFHpOC-81" value="yes" style="text;html=1;align=center;verticalAlign=middle;resizable=0;points=[];autosize=1;strokeColor=none;fillColor=none;" vertex="1" parent="1">
          <mxGeometry x="-1400" y="458" width="40" height="30" as="geometry" />
        </mxCell>
        <mxCell id="aVFgRUdNQQyxXAQFHpOC-82" value="no" style="text;html=1;align=center;verticalAlign=middle;resizable=0;points=[];autosize=1;strokeColor=none;fillColor=none;" vertex="1" parent="1">
          <mxGeometry x="-1400" y="278" width="40" height="30" as="geometry" />
        </mxCell>
        <mxCell id="aVFgRUdNQQyxXAQFHpOC-83" value="yes" style="text;html=1;align=center;verticalAlign=middle;resizable=0;points=[];autosize=1;strokeColor=none;fillColor=none;" vertex="1" parent="1">
          <mxGeometry x="-820" y="328" width="40" height="30" as="geometry" />
        </mxCell>
        <mxCell id="aVFgRUdNQQyxXAQFHpOC-85" value="no" style="text;html=1;align=center;verticalAlign=middle;resizable=0;points=[];autosize=1;strokeColor=none;fillColor=none;" vertex="1" parent="1">
          <mxGeometry x="-820" y="138" width="40" height="30" as="geometry" />
        </mxCell>
      </root>
    </mxGraphModel>
  </diagram>
</mxfile>
